<?xml version="1.0" encoding="iso-8859-1"?>
<!-- Generator: Adobe Illustrator 22.1.0, SVG Export Plug-In . SVG Version: 6.00 Build 0)  -->
<svg version="1.1" id="Layer_1" xmlns="http://www.w3.org/2000/svg" xmlns:xlink="http://www.w3.org/1999/xlink" x="0px" y="0px"
	 viewBox="0 0 48 48" style="enable-background:new 0 0 48 48;" xml:space="preserve">
<path style="fill:none;stroke:#000000;stroke-width:3;stroke-miterlimit:10;" d="M36.5,40.5h-25c-2.209,0-4-1.791-4-4v-25
	c0-2.209,1.791-4,4-4h25c2.209,0,4,1.791,4,4v25C40.5,38.709,38.709,40.5,36.5,40.5z"/>
<circle cx="15.5" cy="15.5" r="2.5"/>
<path d="M17,35h-3c-0.553,0-1-0.447-1-1V21c0-0.553,0.447-1,1-1h3c0.553,0,1,0.447,1,1v13C18,34.553,17.553,35,17,35z"/>
<path d="M29,20c-1.538,0-2.937,0.586-4,1.541V21c0-0.553-0.447-1-1-1h-3c-0.553,0-1,0.447-1,1v13c0,0.553,0.447,1,1,1h3
	c0.553,0,1-0.447,1-1v-7.5c0-1.379,1.121-2.5,2.5-2.5s2.5,1.121,2.5,2.5V34c0,0.553,0.447,1,1,1h3c0.553,0,1-0.447,1-1v-8
	C35,22.691,32.309,20,29,20z"/>
</svg>